# Blender 3.4.0
# www.blender.org
mtllib gift_box_mx_1_1.mtl
o gift_box_mx_1_1
v -0.095000 0.000000 0.095000
v -0.100000 0.200000 0.100000
v -0.095000 0.000000 -0.095000
v -0.100000 0.200000 -0.100000
v 0.095000 0.000000 0.095000
v 0.100000 0.200000 0.100000
v 0.095000 0.000000 -0.095000
v 0.100000 0.200000 -0.100000
v -0.100000 0.160000 0.100000
v -0.100000 0.160000 -0.100000
v 0.100000 0.160000 -0.100000
v 0.100000 0.160000 0.100000
v -0.095000 0.160000 -0.095000
v 0.095000 0.160000 -0.095000
v 0.095000 0.160000 0.095000
v -0.095000 0.160000 0.095000
v 0.000001 0.200000 -0.021213
v 0.000001 0.202000 -0.021213
v 0.021214 0.200000 -0.000000
v 0.021214 0.202000 -0.000000
v 0.016264 0.207000 -0.037477
v 0.016264 0.210000 -0.037477
v 0.037478 0.207000 -0.016264
v 0.037478 0.210000 -0.016264
v 0.021214 0.204000 -0.000000
v 0.000001 0.204000 -0.021213
v 0.024384 0.215482 -0.045596
v 0.025798 0.222518 -0.047010
v 0.020848 0.215482 -0.042060
v 0.022262 0.222518 -0.043475
v 0.047011 0.222518 -0.025797
v 0.045597 0.215482 -0.024383
v 0.036748 0.226867 -0.015534
v 0.042440 0.228982 -0.021226
v 0.036744 0.223165 -0.015530
v 0.042440 0.223982 -0.021226
v 0.021227 0.228982 -0.042439
v 0.015535 0.226867 -0.036747
v 0.015531 0.223165 -0.036743
v 0.021227 0.223982 -0.042439
v 0.042061 0.215482 -0.020847
v 0.043476 0.222518 -0.022261
v 0.000001 0.200000 0.021213
v 0.000001 0.202000 0.021213
v -0.021212 0.200000 0.000000
v -0.021212 0.202000 0.000000
v -0.016263 0.207000 0.037477
v -0.016263 0.210000 0.037477
v -0.037476 0.207000 0.016264
v -0.037476 0.210000 0.016264
v -0.021212 0.204000 0.000000
v 0.000001 0.204000 0.021213
v -0.024382 0.215482 0.045596
v -0.025796 0.222518 0.047010
v -0.020846 0.215482 0.042060
v -0.022260 0.222518 0.043475
v -0.047009 0.222518 0.025797
v -0.045595 0.215482 0.024383
v -0.036746 0.226867 0.015534
v -0.042438 0.228982 0.021226
v -0.036742 0.223165 0.015530
v -0.042438 0.223982 0.021226
v -0.021225 0.228982 0.042439
v -0.015533 0.226867 0.036747
v -0.015529 0.223165 0.036743
v -0.021225 0.223982 0.042439
v -0.042060 0.215482 0.020847
v -0.043474 0.222518 0.022261
v -0.021212 0.200000 -0.000000
v -0.021212 0.202000 -0.000000
v 0.000001 0.200000 -0.021213
v 0.000001 0.202000 -0.021213
v -0.037476 0.207000 -0.016264
v -0.037476 0.210000 -0.016264
v -0.016263 0.207000 -0.037477
v -0.016263 0.210000 -0.037477
v 0.000001 0.204000 -0.021213
v -0.021212 0.204000 -0.000000
v -0.045595 0.215482 -0.024383
v -0.047009 0.222518 -0.025797
v -0.042059 0.215482 -0.020847
v -0.043474 0.222518 -0.022261
v -0.025796 0.222518 -0.047010
v -0.024382 0.215482 -0.045596
v -0.015533 0.226867 -0.036747
v -0.021225 0.228982 -0.042439
v -0.015529 0.223165 -0.036743
v -0.021225 0.223982 -0.042439
v -0.042438 0.228982 -0.021226
v -0.036746 0.226867 -0.015534
v -0.036742 0.223165 -0.015530
v -0.042438 0.223982 -0.021226
v -0.020846 0.215482 -0.042060
v -0.022260 0.222518 -0.043475
v 0.021214 0.200000 0.000000
v 0.021214 0.202000 0.000000
v 0.000001 0.200000 0.021213
v 0.000001 0.202000 0.021213
v 0.037478 0.207000 0.016264
v 0.037478 0.210000 0.016264
v 0.016265 0.207000 0.037477
v 0.016265 0.210000 0.037477
v 0.000001 0.204000 0.021213
v 0.021214 0.204000 0.000000
v 0.045597 0.215482 0.024383
v 0.047011 0.222518 0.025797
v 0.042061 0.215482 0.020847
v 0.043476 0.222518 0.022261
v 0.025798 0.222518 0.047010
v 0.024384 0.215482 0.045596
v 0.015535 0.226867 0.036747
v 0.021227 0.228982 0.042439
v 0.015531 0.223165 0.036743
v 0.021227 0.223982 0.042439
v 0.042440 0.228982 0.021226
v 0.036748 0.226867 0.015534
v 0.036744 0.223165 0.015530
v 0.042440 0.223982 0.021226
v 0.020848 0.215482 0.042060
v 0.022262 0.222518 0.043475
vn -1.0000 -0.0000 -0.0000
vn -0.0000 -0.0000 -1.0000
vn 1.0000 -0.0000 -0.0000
vn -0.0000 -0.0000 1.0000
vn -0.0000 -1.0000 -0.0000
vn -0.0000 1.0000 -0.0000
vn -0.6631 0.7107 -0.2350
vn -0.2350 0.7107 -0.6631
vn 0.6631 0.7107 0.2350
vn 0.2350 0.7107 0.6631
vn -0.5409 0.1263 -0.8316
vn 0.8316 0.1263 0.5409
vn 0.2993 0.5739 0.7623
vn -0.7623 0.5739 -0.2993
vn 0.5779 0.7646 0.2853
vn 0.4414 -0.5426 0.7147
vn 0.2237 -0.1362 0.9651
vn 0.9734 0.1995 -0.1123
vn 0.6055 -0.7427 0.2859
vn -0.2859 -0.7427 -0.6055
vn -0.2388 -0.6626 -0.7099
vn 0.7099 -0.6626 0.2388
vn 0.1783 0.3399 0.9234
vn -0.9234 0.3399 -0.1783
vn -0.7147 -0.5426 -0.4414
vn -0.9651 -0.1362 -0.2237
vn -0.2853 0.7646 -0.5779
vn 0.1123 0.1995 -0.9734
vn -0.7322 0.6545 -0.1884
vn -0.3747 -0.5579 -0.7405
vn -0.0073 -0.4370 -0.8994
vn 0.7405 -0.5579 0.3747
vn 0.1884 0.6545 0.7322
vn 0.8994 -0.4370 0.0073
vn 0.5409 0.1263 0.8316
vn -0.8316 0.1263 -0.5409
vn -0.2993 0.5739 -0.7623
vn 0.7623 0.5739 0.2993
vn -0.5779 0.7646 -0.2853
vn -0.4414 -0.5426 -0.7147
vn -0.2237 -0.1362 -0.9651
vn -0.9734 0.1995 0.1123
vn -0.6055 -0.7427 -0.2859
vn 0.2859 -0.7427 0.6055
vn 0.2388 -0.6626 0.7099
vn -0.7099 -0.6626 -0.2388
vn -0.1783 0.3399 -0.9234
vn 0.9234 0.3399 0.1782
vn 0.7147 -0.5426 0.4414
vn 0.9651 -0.1362 0.2237
vn 0.2853 0.7646 0.5779
vn -0.1123 0.1995 0.9734
vn 0.7322 0.6545 0.1884
vn 0.3747 -0.5579 0.7405
vn 0.0073 -0.4370 0.8994
vn -0.7405 -0.5579 -0.3747
vn -0.1884 0.6545 -0.7322
vn -0.8994 -0.4370 -0.0073
vn -0.8316 0.1263 0.5409
vn 0.5409 0.1263 -0.8316
vn 0.7623 0.5739 -0.2993
vn -0.2993 0.5739 0.7623
vn 0.2853 0.7646 -0.5779
vn 0.7147 -0.5426 -0.4414
vn 0.9651 -0.1362 -0.2237
vn -0.1123 0.1995 -0.9734
vn 0.2859 -0.7427 -0.6055
vn -0.6055 -0.7427 0.2859
vn -0.7099 -0.6626 0.2388
vn 0.2388 -0.6626 -0.7099
vn 0.9234 0.3399 -0.1783
vn -0.1783 0.3399 0.9234
vn -0.4414 -0.5426 0.7147
vn -0.2237 -0.1362 0.9651
vn -0.5779 0.7646 0.2853
vn -0.9734 0.1995 -0.1123
vn -0.3087 0.3820 0.8711
vn -0.1884 0.6545 0.7322
vn -0.7405 -0.5579 0.3747
vn -0.8994 -0.4370 0.0073
vn 0.8711 0.3820 -0.3087
vn 0.3747 -0.5579 -0.7405
vn 0.7322 0.6545 -0.1884
vn 0.0073 -0.4370 -0.8994
vn 0.8316 0.1263 -0.5409
vn -0.5408 0.1263 0.8316
vn -0.7623 0.5739 0.2993
vn 0.2993 0.5739 -0.7623
vn -0.2853 0.7646 0.5779
vn -0.7147 -0.5426 0.4414
vn -0.9651 -0.1362 0.2237
vn 0.1123 0.1995 0.9734
vn -0.2859 -0.7427 0.6055
vn 0.6055 -0.7427 -0.2859
vn 0.7099 -0.6626 -0.2388
vn -0.2388 -0.6626 0.7099
vn -0.9234 0.3399 0.1783
vn 0.1783 0.3399 -0.9234
vn 0.4414 -0.5426 -0.7147
vn 0.2237 -0.1362 -0.9651
vn 0.5779 0.7646 -0.2853
vn 0.9734 0.1995 0.1123
vn 0.3087 0.3820 -0.8711
vn 0.1884 0.6545 -0.7322
vn 0.7405 -0.5579 -0.3747
vn 0.8994 -0.4370 -0.0073
vn -0.8711 0.3820 0.3087
vn -0.3747 -0.5579 0.7405
vn -0.7322 0.6545 0.1884
vn -0.0073 -0.4370 0.8994
vt 0.333333 0.656250
vt 0.658333 0.666667
vt 0.666667 0.658333
vt 0.666667 1.000000
vt 1.000000 0.666667
vt 0.666667 0.333333
vt 0.645833 0.656250
vt 0.341667 0.666667
vt 0.333333 0.658333
vt 0.333333 1.000000
vt 0.000000 0.666667
vt 0.333333 0.333333
vt 0.333333 0.343750
vt 0.658333 0.333333
vt 0.666667 0.341667
vt 0.666667 0.000000
vt 1.000000 0.333333
vt 0.666667 0.666667
vt 0.645833 0.343750
vt 0.333333 0.341667
vt 0.341667 0.333333
vt 0.000000 0.333333
vt 0.333333 0.000000
vt 0.333333 0.666667
vt 0.933333 0.666667
vt 0.666667 0.933333
vt 0.066667 0.666667
vt 0.333333 0.933333
vt 0.333333 0.066667
vt 0.066667 0.333333
vt 0.933333 0.333333
vt 0.666667 0.066667
vt 0.070000 0.658333
vt 0.341667 0.930000
vt 0.341667 0.933333
vt 0.066667 0.658333
vt 0.341667 0.070000
vt 0.070000 0.341667
vt 0.066667 0.341667
vt 0.341667 0.066667
vt 0.930000 0.341667
vt 0.658333 0.070000
vt 0.658333 0.066667
vt 0.933334 0.341667
vt 0.930000 0.658333
vt 0.658333 0.930000
vt 0.658333 0.933334
vt 0.933334 0.658333
vt 0.469902 0.474785
vt 0.469902 0.472203
vt 0.469902 0.475565
vt 0.469902 0.474785
vt 0.469902 0.525215
vt 0.469902 0.472203
vt 0.469902 0.475565
vt 0.469902 0.525215
vt 0.431238 0.483970
vt 0.431238 0.474785
vt 0.431238 0.474785
vt 0.431238 0.489013
vt 0.431238 0.483970
vt 0.431238 0.525215
vt 0.431238 0.525215
vt 0.431238 0.489013
vt 0.469902 0.525215
vt 0.469902 0.478927
vt 0.520333 0.478927
vt 0.469902 0.474785
vt 0.469902 0.478927
vt 0.411936 0.474785
vt 0.469902 0.498229
vt 0.411936 0.498229
vt 0.408574 0.510056
vt 0.469902 0.510056
vt 0.420341 0.474785
vt 0.420341 0.498229
vt 0.469902 0.498229
vt 0.416979 0.474785
vt 0.416979 0.510056
vt 0.469902 0.510056
vt 0.408574 0.510056
vt 0.520333 0.510056
vt 0.411936 0.525215
vt 0.520333 0.498229
vt 0.411936 0.498229
vt 0.520333 0.517368
vt 0.432972 0.525215
vt 0.432972 0.517368
vt 0.419441 0.525215
vt 0.419441 0.520923
vt 0.520333 0.520923
vt 0.432983 0.511143
vt 0.432983 0.525215
vt 0.419441 0.512518
vt 0.419441 0.525215
vt 0.419441 0.474785
vt 0.419441 0.520923
vt 0.469902 0.520923
vt 0.469902 0.517368
vt 0.432972 0.474785
vt 0.432972 0.517368
vt 0.432983 0.474785
vt 0.432983 0.511143
vt 0.419441 0.474785
vt 0.419441 0.512518
vt 0.420341 0.525215
vt 0.520333 0.498229
vt 0.420341 0.498229
vt 0.416979 0.525215
vt 0.520333 0.510056
vt 0.416979 0.510056
vt 0.520333 0.525215
vt 0.520333 0.472203
vt 0.520333 0.475565
vt 0.520333 0.525215
vt 0.520333 0.474785
vt 0.520333 0.472203
vt 0.520333 0.475565
vt 0.520333 0.474785
vt 0.558996 0.483970
vt 0.558996 0.525215
vt 0.558996 0.525215
vt 0.558996 0.489013
vt 0.558996 0.483970
vt 0.558996 0.474785
vt 0.558996 0.474785
vt 0.558996 0.489013
vt 0.520333 0.474785
vt 0.520333 0.478927
vt 0.469902 0.478927
vt 0.520333 0.525215
vt 0.520333 0.478927
vt 0.578299 0.525215
vt 0.520333 0.498229
vt 0.578299 0.498229
vt 0.581661 0.510056
vt 0.520333 0.510056
vt 0.569893 0.525215
vt 0.569893 0.498229
vt 0.520333 0.498229
vt 0.573255 0.525215
vt 0.573255 0.510056
vt 0.520333 0.510056
vt 0.581661 0.510056
vt 0.469902 0.510056
vt 0.578299 0.474785
vt 0.469902 0.498229
vt 0.578299 0.498229
vt 0.469902 0.517368
vt 0.557262 0.474785
vt 0.557262 0.517368
vt 0.570793 0.474785
vt 0.570793 0.520923
vt 0.469902 0.520923
vt 0.557252 0.511143
vt 0.557252 0.474785
vt 0.570793 0.512518
vt 0.570793 0.474785
vt 0.570793 0.525215
vt 0.570793 0.520923
vt 0.520333 0.520923
vt 0.520333 0.517368
vt 0.557262 0.525215
vt 0.557262 0.517368
vt 0.557252 0.525215
vt 0.557252 0.511143
vt 0.570793 0.525215
vt 0.570793 0.512518
vt 0.569893 0.474785
vt 0.469902 0.498229
vt 0.569893 0.498229
vt 0.573255 0.474785
vt 0.469902 0.510056
vt 0.573255 0.510056
vt 0.520333 0.474784
vt 0.469902 0.472203
vt 0.469902 0.475565
vt 0.520333 0.474784
vt 0.469902 0.474784
vt 0.469902 0.472203
vt 0.469902 0.475565
vt 0.469902 0.474784
vt 0.431238 0.483970
vt 0.520333 0.436121
vt 0.520333 0.436121
vt 0.431238 0.489013
vt 0.431238 0.483970
vt 0.469902 0.436121
vt 0.469902 0.436121
vt 0.431238 0.489013
vt 0.469902 0.478927
vt 0.469902 0.478927
vt 0.520333 0.478927
vt 0.520333 0.416819
vt 0.520333 0.498229
vt 0.411936 0.498229
vt 0.408574 0.510056
vt 0.520333 0.510056
vt 0.520333 0.425224
vt 0.420341 0.498229
vt 0.520333 0.498229
vt 0.520333 0.421862
vt 0.416979 0.510056
vt 0.520333 0.510056
vt 0.408574 0.510056
vt 0.469902 0.510056
vt 0.469902 0.416819
vt 0.469902 0.498229
vt 0.411936 0.498229
vt 0.469902 0.517368
vt 0.469902 0.437855
vt 0.432972 0.517368
vt 0.469902 0.424324
vt 0.419441 0.520923
vt 0.469902 0.520923
vt 0.432983 0.511143
vt 0.469902 0.437865
vt 0.419441 0.512518
vt 0.469902 0.424324
vt 0.520333 0.424324
vt 0.419441 0.520923
vt 0.520333 0.520923
vt 0.520333 0.517368
vt 0.520333 0.437855
vt 0.432972 0.517368
vt 0.520333 0.437865
vt 0.432983 0.511143
vt 0.520333 0.424324
vt 0.419441 0.512518
vt 0.469902 0.425224
vt 0.469902 0.498229
vt 0.420341 0.498229
vt 0.469902 0.421862
vt 0.469902 0.510056
vt 0.416979 0.510056
vt 0.469902 0.525216
vt 0.520333 0.472203
vt 0.520333 0.475565
vt 0.469902 0.525216
vt 0.520333 0.525216
vt 0.520333 0.472203
vt 0.520333 0.475565
vt 0.520333 0.525216
vt 0.558996 0.483970
vt 0.469902 0.563879
vt 0.469902 0.563879
vt 0.558996 0.489013
vt 0.558996 0.483970
vt 0.520333 0.563879
vt 0.520333 0.563879
vt 0.558996 0.489013
vt 0.520333 0.478927
vt 0.520333 0.478927
vt 0.469902 0.478927
vt 0.469902 0.583181
vt 0.469902 0.498229
vt 0.578299 0.498229
vt 0.581661 0.510056
vt 0.469902 0.510056
vt 0.469902 0.574776
vt 0.569893 0.498229
vt 0.469902 0.498229
vt 0.469902 0.578138
vt 0.573255 0.510056
vt 0.469902 0.510056
vt 0.581661 0.510056
vt 0.520333 0.510056
vt 0.520333 0.583181
vt 0.520333 0.498229
vt 0.578299 0.498229
vt 0.520333 0.517368
vt 0.520333 0.562145
vt 0.557262 0.517368
vt 0.520333 0.575676
vt 0.570793 0.520923
vt 0.520333 0.520923
vt 0.557252 0.511143
vt 0.520333 0.562135
vt 0.570793 0.512518
vt 0.520333 0.575676
vt 0.469902 0.575676
vt 0.570793 0.520923
vt 0.469902 0.520923
vt 0.469902 0.517368
vt 0.469902 0.562145
vt 0.557262 0.517368
vt 0.469902 0.562135
vt 0.557252 0.511143
vt 0.469902 0.575676
vt 0.570793 0.512518
vt 0.520333 0.574776
vt 0.520333 0.498229
vt 0.569893 0.498229
vt 0.520333 0.578138
vt 0.520333 0.510056
vt 0.573255 0.510056
s 0
usemtl gift_box_mx_1_1
f 9/26/1 2/4/1 4/10/1 10/28/1
f 10/27/2 4/11/2 8/22/2 11/30/2
f 11/29/3 8/23/3 6/16/3 12/32/3
f 12/31/4 6/17/4 2/5/4 9/25/4
f 3/7/5 7/19/5 5/13/5 1/1/5
f 8/24/6 4/12/6 2/6/6 6/18/6
f 15/41/5 12/31/5 9/25/5 16/45/5
f 14/37/5 11/29/5 12/32/5 15/42/5
f 13/33/5 10/27/5 11/30/5 14/38/5
f 16/46/5 9/26/5 10/28/5 13/34/5
f 1/2/1 16/47/1 13/35/1 3/8/1
f 3/9/2 13/36/2 14/39/2 7/20/2
f 7/21/3 14/40/3 15/43/3 5/14/3
f 5/15/4 15/44/4 16/48/4 1/3/4
s 1
f 26/68/7 51/128/8 52/131/9 25/65/10
f 18/52/11 20/56/12 24/63/13 22/59/14
f 34/90/15 36/94/16 42/111/17 31/81/18
f 19/53/19 17/49/20 21/58/21 23/62/22
f 20/55/12 19/54/19 23/61/22 24/64/13
f 17/50/20 18/51/11 22/60/14 21/57/21
f 22/59/14 24/63/13 41/106/23 29/75/24
f 36/95/16 40/104/25 30/78/26 42/109/17
f 40/105/25 37/97/27 28/73/28 30/79/26
f 18/51/11 26/69/7 38/101/29 39/103/30
f 21/57/21 22/60/14 29/76/24 27/72/31
f 25/66/10 20/55/12 35/92/32 33/88/33
f 20/56/12 18/52/11 39/102/30 35/93/32
f 26/69/7 25/67/10 33/86/33 38/99/29
f 24/64/13 23/61/22 32/85/34 41/108/23
f 23/62/22 21/58/21 27/70/31 32/83/34
f 32/84/34 27/71/31 28/74/28 31/82/18
f 27/72/31 29/76/24 30/79/26 28/73/28
f 38/100/29 33/87/33 34/89/15 37/96/27
f 33/88/33 35/92/32 36/94/16 34/90/15
f 35/93/32 39/102/30 40/104/25 36/95/16
f 39/103/30 38/101/29 37/97/27 40/105/25
f 29/77/24 41/107/23 42/110/17 30/80/26
f 41/108/23 32/85/34 31/81/18 42/111/17
f 37/98/27 34/91/15 31/82/18 28/74/28
f 44/115/35 46/119/36 50/126/37 48/122/38
f 60/153/39 62/157/40 68/174/41 57/144/42
f 45/116/43 43/112/44 47/121/45 49/125/46
f 46/118/36 45/117/43 49/124/46 50/127/37
f 43/113/44 44/114/35 48/123/38 47/120/45
f 48/122/38 50/126/37 67/169/47 55/138/48
f 62/158/40 66/167/49 56/141/50 68/172/41
f 66/168/49 63/160/51 54/136/52 56/142/50
f 44/114/35 52/132/9 64/164/53 65/166/54
f 47/120/45 48/123/38 55/139/48 53/135/55
f 51/129/8 46/118/36 61/155/56 59/151/57
f 46/119/36 44/115/35 65/165/54 61/156/56
f 52/132/9 51/130/8 59/149/57 64/162/53
f 50/127/37 49/124/46 58/148/58 67/171/47
f 49/125/46 47/121/45 53/133/55 58/146/58
f 58/147/58 53/134/55 54/137/52 57/145/42
f 53/135/55 55/139/48 56/142/50 54/136/52
f 64/163/53 59/150/57 60/152/39 63/159/51
f 59/151/57 61/155/56 62/157/40 60/153/39
f 61/156/56 65/165/54 66/167/49 62/158/40
f 65/166/54 64/164/53 63/160/51 66/168/49
f 55/140/48 67/170/47 68/173/41 56/143/50
f 67/171/47 58/148/58 57/144/42 68/174/41
f 63/161/51 60/154/39 57/145/42 54/137/52
f 70/178/59 72/182/60 76/189/61 74/185/62
f 86/214/63 88/218/64 94/235/65 83/205/66
f 71/179/67 69/175/68 73/184/69 75/188/70
f 72/181/60 71/180/67 75/187/70 76/190/61
f 69/176/68 70/177/59 74/186/62 73/183/69
f 74/185/62 76/189/61 93/230/71 81/199/72
f 88/219/64 92/228/73 82/202/74 94/233/65
f 92/229/73 89/221/75 80/197/76 82/203/74
f 70/177/59 78/192/77 90/225/78 91/227/79
f 73/183/69 74/186/62 81/200/72 79/196/80
f 77/191/81 72/181/60 87/216/82 85/212/83
f 72/182/60 70/178/59 91/226/79 87/217/82
f 78/193/77 77/191/81 85/210/83 90/223/78
f 76/190/61 75/187/70 84/209/84 93/232/71
f 75/188/70 73/184/69 79/194/80 84/207/84
f 84/208/84 79/195/80 80/198/76 83/206/66
f 79/196/80 81/200/72 82/203/74 80/197/76
f 90/224/78 85/211/83 86/213/63 89/220/75
f 85/212/83 87/216/82 88/218/64 86/214/63
f 87/217/82 91/226/79 92/228/73 88/219/64
f 91/227/79 90/225/78 89/221/75 92/229/73
f 81/201/72 93/231/71 94/234/65 82/204/74
f 93/232/71 84/209/84 83/205/66 94/235/65
f 89/222/75 86/215/63 83/206/66 80/198/76
f 96/239/85 98/243/86 102/250/87 100/246/88
f 112/275/89 114/279/90 120/296/91 109/266/92
f 97/240/93 95/236/94 99/245/95 101/249/96
f 98/242/86 97/241/93 101/248/96 102/251/87
f 95/237/94 96/238/85 100/247/88 99/244/95
f 100/246/88 102/250/87 119/291/97 107/260/98
f 114/280/90 118/289/99 108/263/100 120/294/91
f 118/290/99 115/282/101 106/258/102 108/264/100
f 96/238/85 104/253/103 116/286/104 117/288/105
f 99/244/95 100/247/88 107/261/98 105/257/106
f 103/252/107 98/242/86 113/277/108 111/273/109
f 98/243/86 96/239/85 117/287/105 113/278/108
f 104/254/103 103/252/107 111/271/109 116/284/104
f 102/251/87 101/248/96 110/270/110 119/293/97
f 101/249/96 99/245/95 105/255/106 110/268/110
f 110/269/110 105/256/106 106/259/102 109/267/92
f 105/257/106 107/261/98 108/264/100 106/258/102
f 116/285/104 111/272/109 112/274/89 115/281/101
f 111/273/109 113/277/108 114/279/90 112/275/89
f 113/278/108 117/287/105 118/289/99 114/280/90
f 117/288/105 116/286/104 115/282/101 118/290/99
f 107/262/98 119/292/97 120/295/91 108/265/100
f 119/293/97 110/270/110 109/266/92 120/296/91
f 115/283/101 112/276/89 109/267/92 106/259/102
