# Blender 3.4.0
# www.blender.org
mtllib rubiks_cube_mx_1.mtl
o rubiks_cube_mx_1
v -0.050000 0.000000 0.050000
v -0.050000 0.100000 0.050000
v -0.050000 0.000000 -0.050000
v -0.050000 0.100000 -0.050000
v 0.050000 0.000000 0.050000
v 0.050000 0.100000 0.050000
v 0.050000 0.000000 -0.050000
v 0.050000 0.100000 -0.050000
vn -1.0000 -0.0000 -0.0000
vn -0.0000 -0.0000 -1.0000
vn 1.0000 -0.0000 -0.0000
vn -0.0000 -0.0000 1.0000
vn -0.0000 -1.0000 -0.0000
vn -0.0000 1.0000 -0.0000
vt 0.500000 0.000000
vt 0.500000 0.500000
vt 0.166667 0.000000
vt 1.000000 0.500000
vt 0.500000 0.500000
vt 1.000000 0.000000
vt 0.000000 0.000000
vt 0.166667 0.500000
vt 1.000000 0.500000
vt 0.000000 0.500000
vt 0.500000 1.000000
vt 0.000000 0.500000
vt 0.500000 0.000000
vt 0.666667 0.000000
vt 0.500000 0.500000
vt 1.000000 0.000000
vt 1.000000 0.500000
vt 0.500000 0.000000
vt 0.000000 1.000000
vt 0.666667 0.500000
vt 0.500000 0.500000
vt 0.500000 1.000000
vt 1.000000 1.000000
s 0
usemtl rubiks_cube_mx_1
f 1/1/1 2/5/1 4/9/1 3/6/1
f 3/7/2 4/10/2 8/21/2 7/18/2
f 7/19/3 8/22/3 6/15/3 5/12/3
f 5/13/4 6/16/4 2/4/4 1/2/4
f 3/8/5 7/20/5 5/14/5 1/3/5
f 8/23/6 4/11/6 2/5/6 6/17/6
